<?xml version="1.0" encoding="UTF-8"?>
<svg width="71px" height="69px" viewBox="0 0 71 69" version="1.1" xmlns="http://www.w3.org/2000/svg" xmlns:xlink="http://www.w3.org/1999/xlink">
    <!-- Generator: Sketch 50.2 (55047) - http://www.bohemiancoding.com/sketch -->
    <title>dashboard-zero</title>
    <desc>Created with Sketch.</desc>
    <defs></defs>
    <g id="dashboard-zero" stroke="none" stroke-width="1" fill="none" fill-rule="evenodd">
        <path d="M5,66 L12,66 L12,54 L5,54 L5,66 Z M4,52 L13,52 C13.5522847,52 14,52.4477153 14,53 L14,67 C14,67.5522847 13.5522847,68 13,68 L4,68 C3.44771525,68 3,67.5522847 3,67 L3,53 C3,52.4477153 3.44771525,52 4,52 Z" id="Rectangle-path" fill="#15CC62" fill-rule="nonzero"></path>
        <path d="M23,66 L30,66 L30,39 L23,39 L23,66 Z M22,37 L31,37 C31.5522847,37 32,37.4477153 32,38 L32,67 C32,67.5522847 31.5522847,68 31,68 L22,68 C21.4477153,68 21,67.5522847 21,67 L21,38 C21,37.4477153 21.4477153,37 22,37 Z" id="Rectangle-path" fill="#15CC62" fill-rule="nonzero"></path>
        <path d="M41,66 L48,66 L48,45 L41,45 L41,66 Z M40,43 L49,43 C49.5522847,43 50,43.4477153 50,44 L50,67 C50,67.5522847 49.5522847,68 49,68 L40,68 C39.4477153,68 39,67.5522847 39,67 L39,44 C39,43.4477153 39.4477153,43 40,43 Z" id="Rectangle-path" fill="#15CC62" fill-rule="nonzero"></path>
        <path d="M59,25 L59,66 L66,66 L66,25 L59,25 Z M58,23 L67,23 C67.5522847,23 68,23.4477153 68,24 L68,67 C68,67.5522847 67.5522847,68 67,68 L58,68 C57.4477153,68 57,67.5522847 57,67 L57,24 C57,23.4477153 57.4477153,23 58,23 Z" id="Rectangle-path" fill="#15CC62" fill-rule="nonzero"></path>
        <path d="M11.4396232,31.5512597 C11.0119009,31.9006479 10.3819284,31.8371455 10.0325403,31.4094232 C9.68315211,30.9817009 9.7466545,30.3517284 10.1743768,30.0023403 L23.3673768,19.2255403 C23.7950991,18.8761521 24.4250716,18.9396545 24.7744597,19.3673768 C25.1238479,19.7950991 25.0603455,20.4250716 24.6326232,20.7744597 L11.4396232,31.5512597 Z" id="Shape" fill="#116149" fill-rule="nonzero"></path>
        <polygon id="Shape" fill="#116149" fill-rule="nonzero" points="29.0302911 20.0796455 29.6397089 18.1747545 42.0447089 22.1433945 41.4352911 24.0482855"></polygon>
        <path d="M59.2626323,6.32450837 C59.6356961,5.91727146 60.2682547,5.88956862 60.6754916,6.26263234 C61.0827285,6.63569607 61.1104314,7.26825472 60.7373677,7.67549163 L47.1873677,22.4666916 C46.8143039,22.8739285 46.1817453,22.9016314 45.7745084,22.5285677 C45.3672715,22.1555039 45.3395686,21.5229453 45.7126323,21.1157084 L59.2626323,6.32450837 Z" id="Shape" fill="#116149" fill-rule="nonzero"></path>
        <path d="M1,68 C0.44771525,68 0,67.5522847 0,67 C0,66.4477153 0.44771525,66 1,66 L70,66 C70.5522847,66 71,66.4477153 71,67 C71,67.5522847 70.5522847,68 70,68 L1,68 Z" id="Shape" fill="#116149" fill-rule="nonzero"></path>
        <path d="M8.5,36.74 C6.290861,36.74 4.5,34.949139 4.5,32.74 C4.5,30.530861 6.290861,28.74 8.5,28.74 C10.709139,28.74 12.5,30.530861 12.5,32.74 C12.5,34.949139 10.709139,36.74 8.5,36.74 Z M8.5,34.74 C9.6045695,34.74 10.5,33.8445695 10.5,32.74 C10.5,31.6354305 9.6045695,30.74 8.5,30.74 C7.3954305,30.74 6.5,31.6354305 6.5,32.74 C6.5,33.8445695 7.3954305,34.74 8.5,34.74 Z" id="Oval" fill="#116149" fill-rule="nonzero"></path>
        <path d="M26.5,22.34 C24.290861,22.34 22.5,20.549139 22.5,18.34 C22.5,16.130861 24.290861,14.34 26.5,14.34 C28.709139,14.34 30.5,16.130861 30.5,18.34 C30.5,20.549139 28.709139,22.34 26.5,22.34 Z M26.5,20.34 C27.6045695,20.34 28.5,19.4445695 28.5,18.34 C28.5,17.2354305 27.6045695,16.34 26.5,16.34 C25.3954305,16.34 24.5,17.2354305 24.5,18.34 C24.5,19.4445695 25.3954305,20.34 26.5,20.34 Z" id="Oval" fill="#116149" fill-rule="nonzero"></path>
        <path d="M44.5,28.1 C42.290861,28.1 40.5,26.309139 40.5,24.1 C40.5,21.890861 42.290861,20.1 44.5,20.1 C46.709139,20.1 48.5,21.890861 48.5,24.1 C48.5,26.309139 46.709139,28.1 44.5,28.1 Z M44.5,26.1 C45.6045695,26.1 46.5,25.2045695 46.5,24.1 C46.5,22.9954305 45.6045695,22.1 44.5,22.1 C43.3954305,22.1 42.5,22.9954305 42.5,24.1 C42.5,25.2045695 43.3954305,26.1 44.5,26.1 Z" id="Oval" fill="#116149" fill-rule="nonzero"></path>
        <path d="M62.5,8 C60.290861,8 58.5,6.209139 58.5,4 C58.5,1.790861 60.290861,-5.68434189e-14 62.5,-5.68434189e-14 C64.709139,-5.68434189e-14 66.5,1.790861 66.5,4 C66.5,6.209139 64.709139,8 62.5,8 Z M62.5,6 C63.6045695,6 64.5,5.1045695 64.5,4 C64.5,2.8954305 63.6045695,2 62.5,2 C61.3954305,2 60.5,2.8954305 60.5,4 C60.5,5.1045695 61.3954305,6 62.5,6 Z" id="Oval" fill="#116149" fill-rule="nonzero"></path>
    </g>
</svg>